<?xml version="1.0" encoding="UTF-8" standalone="no"?>
<svg
   xmlns:dc="http://purl.org/dc/elements/1.1/"
   xmlns:cc="http://creativecommons.org/ns#"
   xmlns:rdf="http://www.w3.org/1999/02/22-rdf-syntax-ns#"
   xmlns:svg="http://www.w3.org/2000/svg"
   xmlns="http://www.w3.org/2000/svg"
   viewBox="0 0 1600 1600"
   height="1600"
   width="1600"
   xml:space="preserve"
   id="svg2"
   version="1.1"><metadata
     id="metadata8"><rdf:RDF><cc:Work
         rdf:about=""><dc:format>image/svg+xml</dc:format><dc:type
           rdf:resource="http://purl.org/dc/dcmitype/StillImage" /></cc:Work></rdf:RDF></metadata><defs
     id="defs6" /><g
     transform="matrix(1.3333333,0,0,-1.3333333,0,1600)"
     id="g10"><g
       transform="scale(0.1)"
       id="g12"><path
         id="path14"
         style="fill:#80cbd3;fill-opacity:1;fill-rule:nonzero;stroke:none"
         d="M 0,0 H 12000 V 12000 H 0 Z" /><path
         id="path16"
         style="fill:#ffffff;fill-opacity:1;fill-rule:nonzero;stroke:none"
         d="m 9391.59,8788.05 c 0,-6320.59 -5123.86,-11444.45 -11444.44,-11444.45 -6320.6,0 -11444.45,5123.86 -11444.45,11444.45 0,6320.55 5123.85,11444.45 11444.45,11444.45 6320.58,0 11444.44,-5123.9 11444.44,-11444.45" /><path
         id="path18"
         style="fill:#59909b;fill-opacity:1;fill-rule:nonzero;stroke:none"
         d="m 9475.11,690.301 c -772.79,0 -1399.29,82.898 -1399.29,185 0,102.199 626.5,185.099 1399.29,185.099 772.79,0 1399.29,-82.9 1399.29,-185.099 0,-102.102 -626.5,-185 -1399.29,-185" /><path
         id="path20"
         style="fill:#ffffff;fill-opacity:1;fill-rule:nonzero;stroke:none"
         d="m 8636.13,2094.14 c -390.94,0 -580.61,316.13 -661.24,497.46 -43.99,99.06 -24,228.2 75.03,272.23 99.06,44.02 134.69,-115.75 221.25,-212.31 42.23,-47.07 168.32,-164.88 364.96,-164.88 210.67,0 400.47,102.07 402.35,103.13 94.76,52.61 213.9,18.28 266.52,-76.45 52.63,-94.77 18.16,-214.41 -76.6,-267.07 -11.17,-6.2 -277.42,-152.11 -592.27,-152.11" /><path
         id="path22"
         style="fill:#ffffff;fill-opacity:1;fill-rule:nonzero;stroke:none"
         d="m 9684.84,1489.5 -656.51,126.2 c 0,0 -200.83,329.7 -125.13,723.41 97.5,507.06 -453.79,829.29 -317.54,1537.95 141.33,735.08 821.32,1169.19 1460.44,1047.51 l 1,-0.2 1.2,-0.23 c 638.6,-124.02 1109.1,-779.35 967.8,-1514.45 -136.3,-708.6 -801.3,-775.63 -898.9,-1282.7 -75.7,-393.79 -432.36,-637.49 -432.36,-637.49" /><path
         id="path24"
         style="fill:#ffffff;fill-opacity:1;fill-rule:nonzero;stroke:none"
         d="m 9714.14,868.199 c 240.73,0 325.86,1123.901 325.86,1123.901 13.7,123.4 -75.23,234.54 -198.63,248.26 -123.44,13.75 -234.57,-75.24 -248.24,-198.6 0,0 -119.66,-1173.561 121.01,-1173.561" /><path
         id="path26"
         style="fill:#ffffff;fill-opacity:1;fill-rule:nonzero;stroke:none"
         d="m 9246.77,877.5 c 280.93,0 105.18,1190.78 105.18,1190.78 -12.55,123.52 -122.89,213.57 -246.37,200.98 -123.51,-12.5 -213.5,-122.82 -200.97,-246.37 0,0 83.59,-1145.39 342.16,-1145.39" /><path
         id="path28"
         style="fill:#ffffff;fill-opacity:1;fill-rule:nonzero;stroke:none"
         d="m 10099.6,4846.76 c 0,0 144.3,0.53 215.6,80.19 73.3,81.96 -108.4,106.85 -182.2,45.39 -32.4,-27 -47.9,-52.03 -47.9,-52.03 0,0 -3.6,123.63 -61.2,152.5 -57.57,28.83 -101.87,-26.2 -77.06,-73.9 24.8,-47.74 24.8,-47.74 24.8,-47.74 0,0 -42.93,60.67 -118.63,84.61 -61.42,19.48 -116.11,19.66 -93.6,-32.81 15.16,-35.34 150.51,-128.2 150.51,-128.2 l 189.68,-28.01" /><path
         id="path30"
         style="fill:#211d1d;fill-opacity:1;fill-rule:nonzero;stroke:none"
         d="m 8802.3,4384.25 c 27.83,-19.69 56.72,-37.69 85.71,-55.16 29.1,-17.34 58.94,-33.31 89.18,-48.18 22.5,-11.3 45.67,-21.81 68.67,-31.38 16.9,29.38 33.87,58.7 51.25,87.71 l 1.3,1.98 c 10.14,14.5 30.18,17.94 44.61,7.73 l 1.82,-1.28 c 29.97,-21.1 60.43,-41.4 91.41,-60.83 31.13,-19.25 62.03,-38.79 93.79,-56.87 31.68,-18.24 63.75,-35.63 96.25,-52.07 7.81,-3.87 15.79,-7.8 23.74,-11.68 l -11.25,67.07 c -2.06,13.04 1.56,27.1 11.26,37.54 16.65,18.02 44.8,19.1 62.85,2.39 l 0.52,-0.49 c 68.26,-63.1 145.46,-118.93 227.41,-167.72 81.24,-50.28 167.03,-94.03 253.99,-135.93 43.49,-21.02 87.69,-40.79 132.19,-60.05 44.2,-19.73 89,-38.59 134.1,-56.64 90,-37.15 181.3,-71.41 273.4,-105.36 -97.4,13.76 -193,36.74 -288,62.28 -47.3,13.47 -94.5,27.74 -141.3,43.03 -46.7,15.78 -93.1,32.78 -139.07,50.83 -92.07,36.13 -181.91,78.71 -269.1,127.54 -51.98,30.39 -103.4,62.98 -152.26,99.53 l 4.84,-31.78 0.16,-1.12 c 1.21,-7.87 0.27,-16.17 -3.24,-24.01 -9.63,-21.76 -35.12,-31.52 -56.84,-21.84 -36.64,16.33 -69.69,33.24 -103.05,52.11 -33.17,18.6 -65.78,38.09 -97.77,58.4 -31.92,20.44 -63.67,41.13 -94.1,63.7 -21.37,15.63 -42.32,31.77 -63.08,48.14 -16.8,-24.15 -33.56,-48.35 -50.78,-72.2 l -1.89,-2.61 c -7.22,-10.04 -20.82,-13.63 -32.22,-8.01 -32.82,16.21 -62.27,33.68 -92.07,52.43 -29.3,19.02 -57.7,39.37 -85.16,60.66 -27.59,21.25 -53.67,44.3 -78.67,68.25 -25.2,23.81 -48.19,49.8 -70.12,76.31 26.13,-22.4 53.83,-42.64 81.52,-62.42" /><path
         id="path32"
         style="fill:#211d1d;fill-opacity:1;fill-rule:nonzero;stroke:none"
         d="m 8974.69,3626.05 c -24.06,-66.78 -97.7,-101.33 -164.49,-77.3 -66.76,24.09 -101.4,97.71 -77.28,164.49 24.03,66.79 97.71,101.4 164.47,77.31 66.78,-24.07 101.4,-97.7 77.3,-164.5" /><path
         id="path34"
         style="fill:#211d1d;fill-opacity:1;fill-rule:nonzero;stroke:none"
         d="m 8793,3874.64 c 43.77,-10.81 80.55,-19.52 113.09,-35.77 16.18,-8.05 31.29,-17.66 45.82,-29.78 14.84,-11.95 28.56,-26.62 44.73,-42.89 3,45.63 -27.03,92.19 -70.66,112.94 -21.49,10.63 -45.24,15.31 -68.2,14.64 -22.83,-0.97 -45.51,-6.16 -64.78,-19.14" /><path
         id="path36"
         style="fill:#211d1d;fill-opacity:1;fill-rule:nonzero;stroke:none"
         d="m 9845.43,3312.11 c -24.06,-66.75 10.55,-140.35 77.38,-164.45 66.76,-24.04 140.39,10.5 164.49,77.26 24.1,66.83 -10.6,140.5 -77.3,164.53 -66.84,24.09 -140.5,-10.5 -164.57,-77.34" /><path
         id="path38"
         style="fill:#211d1d;fill-opacity:1;fill-rule:nonzero;stroke:none"
         d="m 10143.9,3387.62 c -6.4,22.26 -20.6,40.74 -37.6,56.09 -17.2,15.15 -38.5,26.68 -61.8,32.19 -46.89,11.87 -99.73,-4.81 -126.5,-41.89 22.9,2.24 42.75,4.74 61.8,4.51 18.91,0.07 36.7,-2.19 54.2,-6.3 35.5,-8.27 69.4,-25.03 109.9,-44.6" /><path
         id="path40"
         style="fill:#211d1d;fill-opacity:1;fill-rule:nonzero;stroke:none"
         d="m 9645.12,3394.96 c -61.45,-170.39 27.18,-359.02 197.58,-420.4 170.4,-61.44 358.9,27.24 420.4,197.63 61.4,170.34 -27.2,358.94 -197.7,420.35 -170.28,61.44 -358.88,-27.19 -420.28,-197.58 z m -84.6,30.51 c 78.27,216.98 318.46,329.88 535.48,251.64 217,-78.23 329.9,-318.44 251.7,-535.43 -78.2,-217.03 -318.5,-329.96 -535.51,-251.68 -216.99,78.17 -329.89,318.41 -251.67,535.47" /><path
         id="path42"
         style="fill:#211d1d;fill-opacity:1;fill-rule:nonzero;stroke:none"
         d="m 8561.77,3785.55 c -61.43,-170.42 27.18,-358.99 197.61,-420.43 170.39,-61.45 358.9,27.26 420.35,197.61 61.4,170.37 -27.19,358.95 -197.57,420.39 -170.4,61.45 -359,-27.22 -420.39,-197.57 z m -84.61,30.49 c 78.23,216.97 318.47,329.87 535.5,251.62 217,-78.21 329.88,-318.41 251.68,-535.43 -78.25,-217.03 -318.48,-329.93 -535.47,-251.71 -217.02,78.26 -329.92,318.44 -251.71,535.52" /><path
         id="path44"
         style="fill:#211d1d;fill-opacity:1;fill-rule:nonzero;stroke:none"
         d="m 9583.15,3448.86 75.33,49.14 c -46.33,70.95 -113.04,123.67 -192.93,152.47 -79.33,28.62 -163.83,30.73 -244.26,6.12 l 26.29,-86 c 61.72,18.9 126.56,17.3 187.5,-4.69 61.36,-22.12 112.54,-62.62 148.07,-117.04" /><path
         id="path46"
         style="fill:#211d1d;fill-opacity:1;fill-rule:nonzero;stroke:none"
         d="m 9540.63,3206.13 -184.17,65.33 -3.33,1.2 -184.18,65.28 c 0,0 -37.62,-104.32 -63.04,-231.22 -22.71,-113.52 20.29,-211.84 102.4,-242.55 v -0.07 l 0.88,-0.4 0.77,-0.18 0.67,-0.36 0.98,-0.23 0.03,0.04 c 83.13,-27.86 178.44,21.44 232.3,123.9 60.2,114.57 96.69,219.26 96.69,219.26" /><path
         id="path48"
         style="fill:#e42c35;fill-opacity:1;fill-rule:nonzero;stroke:none"
         d="m 9443.94,2986.87 c 11.25,21.41 21.61,42.39 31.14,62.47 -33.6,28 -147.74,97.03 -375.08,-1.18 -0.23,-87.61 40.7,-158.71 108.31,-183.99 v -0.07 l 0.88,-0.4 0.77,-0.18 0.67,-0.36 0.98,-0.23 0.03,0.04 c 83.13,-27.86 178.44,21.44 232.3,123.9" /><path
         id="path50"
         style="fill:#ffffff;fill-opacity:1;fill-rule:nonzero;stroke:none"
         d="m 10138.3,2317.62 c -115.3,101.86 -287.75,43.12 -334.12,-103.2 -32.43,-102.28 88.29,-173.52 144.62,-241.02 76.1,-91.3 142.1,-199.7 147,-321.6 4.7,-117.9 -31.9,-283.9 70.7,-318.8 93.7,-31.9 150.7,68.8 184,137 47.3,97.3 67.3,197.4 57,306 -7.7,81.3 -33.5,158.9 -68.2,232.55 -37.7,80.43 -109.1,227.86 -201,309.07" /><path
         id="path52"
         style="fill:#211d1d;fill-opacity:1;fill-rule:nonzero;stroke:none"
         d="m 9336.48,2342.11 -1.28,0.31 -50.63,13.64 -18.13,132.22 79.21,50.27 39.55,-10.66 1.21,-0.31 39.58,-10.68 43.18,-83.26 -82.06,-105.17 -50.63,13.64" /><path
         id="path54"
         style="fill:#211d1d;fill-opacity:1;fill-rule:nonzero;stroke:none"
         d="m 9170.94,1732.7 -98.8,174.5 206.02,417.88 48.79,-13.17 0.66,-0.15 0.63,-0.16 48.83,-13.16 -31.72,-464.84 -173.16,-101.2 -0.31,-1.3 -0.5,0.8 -0.78,-0.5 0.34,1.3" /><path
         id="path56"
         style="fill:#211d1d;fill-opacity:1;fill-rule:nonzero;stroke:none"
         d="m 8229.1,3270.21 c -60.38,11.55 -136.26,-36.23 -168.74,-106.18 l -202.13,-435.32 c -32.5,-69.92 -2.37,-138.5 66.89,-152.38 69.28,-13.88 149.96,33.08 179.33,104.34 l 180.86,438.98 c 29.41,71.29 4.07,139.06 -56.21,150.56" /><path
         id="path58"
         style="fill:#e42c35;fill-opacity:1;fill-rule:nonzero;stroke:none"
         d="m 8618.16,3350.16 -169.06,48.93 -82.81,-286.17 169.02,-48.91 c 59.49,-17.24 121.68,17.05 138.91,76.54 l 20.47,70.73 c 17.22,59.46 -17.07,121.66 -76.53,138.88" /><path
         id="path60"
         style="fill:#e42c35;fill-opacity:1;fill-rule:nonzero;stroke:none"
         d="m 8091.98,3681.41 c -257.64,184.72 -486.71,428 -564.92,634.73 -128.31,339.06 -319.87,394.46 -319.87,394.46 L 6622.7,2690.91 c 0,0 186.48,-72.86 476.02,145.22 173.73,130.9 489.72,213.71 801.25,234.03 140.68,222.08 181.63,459.21 192.01,611.25" /><path
         id="path62"
         style="fill:#e42c35;fill-opacity:1;fill-rule:nonzero;stroke:none"
         d="m 8589.64,3423.67 c -43.59,12.62 -88.82,29.25 -134.87,48.94 -27.31,-203.6 -74.64,-335.77 -117.66,-419.29 48.2,-7.89 94.06,-17.81 136.6,-30.09 0,0 62.89,18.13 111.95,187.74 49.08,169.62 3.98,212.7 3.98,212.7" /><path
         id="path64"
         style="fill:#b22429;fill-opacity:1;fill-rule:nonzero;stroke:none"
         d="m 8454.77,3472.61 c -119.04,50.91 -243.91,123.56 -362.79,208.8 -10.38,-152.04 -51.33,-389.17 -192.01,-611.25 152.58,9.97 303.98,4.88 437.14,-16.84 43.02,83.52 90.35,215.69 117.66,419.29" /><path
         id="path66"
         style="fill:#b22429;fill-opacity:1;fill-rule:nonzero;stroke:none"
         d="m 7193.54,3620.16 c -161.43,-557.77 -417.01,-973.78 -570.84,-929.25 -153.87,44.52 -147.74,532.73 13.67,1090.47 161.4,557.72 416.96,973.74 570.82,929.22 153.86,-44.55 147.76,-532.74 -13.65,-1090.44" /><path
         id="path68"
         style="fill:#211d1d;fill-opacity:1;fill-rule:nonzero;stroke:none"
         d="m 6884.34,3772.5 -31.25,-107.93 c -27.54,-95.2 27.27,-194.73 122.5,-222.27 l 146.75,-42.46 c 25.16,70.28 49.1,143.91 71.2,220.32 22.94,79.29 42.63,157.08 59.3,232.5 L 7106.59,3895 c -95.22,27.54 -194.71,-27.29 -222.25,-122.5" /><path
         id="path70"
         style="fill:#e42c35;fill-opacity:1;fill-rule:nonzero;stroke:none"
         d="m 6034.77,3342.47 c -51.83,96.9 -76.75,208 -82.93,319.01 -5.79,111.57 7.96,223.32 37.07,331.52 28.54,106.66 74.37,212.03 138.08,303.67 63.84,91.88 142.5,170.16 230.17,235.44 -59.97,-91.64 -121.07,-179.45 -168.72,-272.62 -48.52,-92.77 -84.17,-189.52 -111.6,-291.02 -26.95,-100.07 -45.94,-203.34 -53.44,-307.58 -8.12,-104.56 -3.98,-210.11 11.37,-318.42" /><path
         id="path72"
         style="fill:#e42c35;fill-opacity:1;fill-rule:nonzero;stroke:none"
         d="m 5838.24,3264.53 c -41.25,53.44 -64.92,118.78 -83.79,183.56 -17.65,65.46 -28.82,132.77 -33.43,200.54 -10.19,135.71 3.22,272.97 38.75,405.71 35.74,131.87 95,257.5 172.53,368.83 38.36,56.01 82.03,108.28 129.92,156.13 48.8,46.35 101.11,92.03 163.6,117.93 -51.03,-42.86 -91.6,-94.3 -129.57,-147.15 -38.16,-52.63 -71.99,-108.13 -103.4,-164.49 -61.76,-113.53 -111.64,-232 -145.08,-355.59 -33.19,-122.81 -51.29,-250.97 -55.78,-379.79 -1.56,-64.43 -0.51,-129.31 6.29,-193.88 6.33,-64.69 16.82,-129.22 39.96,-191.8" /><path
         id="path74"
         style="fill:#e42c35;fill-opacity:1;fill-rule:nonzero;stroke:none"
         d="m 6259.17,3490.98 c -27.18,68.36 -38.2,141.91 -39.44,215.38 -0.85,73.72 8.74,146.89 28.24,219.03 18.98,70.27 48.32,139.57 86.22,202.34 38.27,62.69 85.11,120.52 143.28,165.59 -27.7,-67.93 -54.89,-132.03 -78.64,-196.99 -24.03,-64.95 -44.8,-129.09 -63.01,-195.82 -17.65,-64.85 -32.67,-132.07 -44.77,-199.85 -12.46,-68.03 -21.44,-137.04 -31.88,-209.68" /></g></g></svg>